<svg width="62" height="62" viewBox="0 0 62 62" fill="none" xmlns="http://www.w3.org/2000/svg">
<path d="M0 31C0 13.8792 13.8792 0 31 0C48.1208 0 62 13.8792 62 31C62 48.1208 48.1208 62 31 62C13.8792 62 0 48.1208 0 31Z" fill="#E8E8E8"/>
<g clip-path="url(#clip0_436_427)">
<path d="M30.9998 28.9999V33.2599H36.9197C36.6598 34.6299 35.8797 35.79 34.7097 36.57L38.2797 39.34C40.3597 37.4201 41.5597 34.6 41.5597 31.25C41.5597 30.4701 41.4897 29.72 41.3597 29.0001L30.9998 28.9999Z" fill="#4285F4"/>
<path d="M24.8351 33.0937L24.03 33.71L21.1799 35.93C22.9899 39.52 26.6997 42 30.9996 42C33.9695 42 36.4595 41.02 38.2796 39.34L34.7096 36.57C33.7296 37.23 32.4796 37.6301 30.9996 37.6301C28.1396 37.6301 25.7097 35.7001 24.8396 33.1L24.8351 33.0937Z" fill="#34A853"/>
<path d="M21.1799 26.07C20.43 27.5499 20 29.22 20 30.9999C20 32.7799 20.43 34.4499 21.1799 35.9299C21.1799 35.9398 24.84 33.0899 24.84 33.0899C24.62 32.4299 24.4899 31.7299 24.4899 30.9998C24.4899 30.2697 24.62 29.5698 24.84 28.9098L21.1799 26.07Z" fill="#FBBC05"/>
<path d="M30.9998 24.38C32.6199 24.38 34.0598 24.94 35.2098 26.02L38.3598 22.87C36.4498 21.0901 33.9699 20 30.9998 20C26.6999 20 22.9899 22.47 21.1799 26.07L24.8399 28.91C25.7098 26.31 28.1399 24.38 30.9998 24.38Z" fill="#EA4335"/>
</g>
<defs>
<clipPath id="clip0_436_427">
<rect width="22" height="22" fill="white" transform="translate(20 20)"/>
</clipPath>
</defs>
</svg>
