<svg width="250" height="221" viewBox="0 0 250 221" fill="none" xmlns="http://www.w3.org/2000/svg">
<path opacity="0.96" d="M100.51 162.875C98.1464 162.866 95.7802 162.771 93.4117 162.577C67.4535 160.449 37.3819 148.054 24.4574 125.486C13.1577 105.756 8.72108 80.2127 13.866 58.2088C18.7024 37.5252 33.6966 20.7702 54.6929 14.4079C78.3059 7.25303 104.403 15.9466 127.639 6.17512C161.457 -8.04691 203.963 3.24762 227.664 30.3069C248.678 54.2976 253.764 92.9821 247.168 122.956C243.834 138.104 235.064 152.694 221.105 160.32C209.998 166.389 196.572 167.585 183.871 166.003C173.659 164.732 164.257 161.401 154.434 158.66C146.559 156.463 140.098 157.607 132.039 159.202C121.666 161.254 111.119 162.92 100.51 162.875Z" fill="#ECECEC"/>
<path d="M144.863 32.4512H211.841L202.107 29.1658C202.107 29.1658 200.855 22.7831 197.578 22.7831C194.301 22.7831 192.085 26.7252 192.085 26.7252C192.085 26.7252 192.181 13.491 183.797 13.491C175.412 13.491 173.581 26.444 173.581 26.444C173.581 26.444 171.558 19.9678 167.029 19.9678C162.499 19.9678 160.764 28.2279 160.764 28.2279L144.863 32.4512Z" fill="white"/>
<path d="M137.742 221C191.585 221 235.234 219.072 235.234 216.694C235.234 214.317 191.585 212.389 137.742 212.389C83.8986 212.389 40.25 214.317 40.25 216.694C40.25 219.072 83.8986 221 137.742 221Z" fill="#330202"/>
<path d="M132.3 204.254C132.3 204.254 171.016 201.668 167.526 190.634C164.035 179.6 146.703 190.972 146.703 190.972C146.703 190.972 160.304 181.153 160.77 169.925C161.235 158.697 135.511 188.168 135.511 188.168C135.511 188.168 143.25 178.467 142.657 166.761C142.063 155.055 124.55 173.271 132.3 204.254Z" fill="#EDB62B"/>
<path opacity="0.39" d="M134.164 198.141C134.164 198.141 161.67 163.406 154.841 174.246C148.011 185.085 134.164 198.141 134.164 198.141Z" fill="#A87D1D"/>
<path opacity="0.39" d="M162.175 191.392L135.559 198.408C135.559 198.408 159.031 195.57 162.175 191.392Z" fill="#A87D1D"/>
<path opacity="0.39" d="M138.775 169.468L131.845 190.858C131.845 190.858 134.307 173.032 138.775 169.468Z" fill="#A87D1D"/>
<path d="M51.8025 103.652C51.8025 103.652 39.7235 77.0634 15.0065 72.7099C-9.71049 68.3564 50.2225 111.723 50.2225 111.723L51.8025 103.652Z" fill="#FFC900"/>
<path opacity="0.39" d="M50.7671 108.943C50.7671 108.943 26.773 81.7979 18.8877 78.3526C11.0024 74.9074 40.0751 86.1339 51.0454 107.522C50.7671 108.943 50.7671 108.943 50.7671 108.943Z" fill="#A87D1D"/>
<path d="M56.965 105.354C56.965 105.354 57.0975 76.1507 36.4591 61.87C15.8208 47.5893 52.1577 112.027 52.1577 112.027L56.965 105.354Z" fill="#FFC900"/>
<path opacity="0.39" d="M53.8145 109.728C53.8145 109.728 43.3539 75.0419 37.629 68.618C31.9036 62.1935 53.6286 84.5385 54.6612 108.554C53.8145 109.728 53.8145 109.728 53.8145 109.728Z" fill="#A87D1D"/>
<path d="M54.4671 149.113C54.4671 149.113 43.3149 168.688 25.0242 154.746C36.7255 153.234 38.8069 147.023 38.8069 147.023C38.8069 147.023 24.2258 158.17 13.9813 144.505C26.0998 143.277 29.2179 138.684 29.2179 138.684C29.2179 138.684 17.2638 136.974 12.908 138.897C8.55278 140.821 9.27797 129.418 9.27797 129.418C9.27797 129.418 27.7762 133.873 29.9704 131.636C32.1651 129.4 8.9729 124.026 8.9729 124.026L9.71959 118.433C9.71959 118.433 25.6849 125.916 21.1071 120.978C16.5287 116.04 12.4722 115.727 12.4722 115.727L16.7391 107.643L31.1099 104.894C31.1099 104.894 34.5452 120.95 37.3339 122.233C40.1225 123.516 35.3158 104.089 35.3158 104.089L43.265 107.655C43.265 107.655 42.7926 122.279 44.8136 123.346C46.8346 124.413 47.0228 110.206 47.0228 110.206C47.0228 110.206 52.4513 113.891 51.3757 125.36C53.3968 126.427 57.7154 120.514 56.3591 115.323C64.4699 133.03 60.8736 144.618 54.4671 149.113Z" fill="#CECECE"/>
<path opacity="0.53" d="M22.6219 115.602C22.6219 115.602 47.0577 131.274 53.0138 147.212C39.8458 131.564 22.6219 115.602 22.6219 115.602Z" fill="#5A5A66"/>
<path opacity="0.53" d="M39.1016 134.686L26.4642 135.689C26.4642 135.689 38.0528 137.836 39.1016 134.686Z" fill="#5A5A66"/>
<path opacity="0.53" d="M44.0761 140.34L31.5438 144.507C31.5438 144.507 44.0993 143.568 44.0761 140.34Z" fill="#5A5A66"/>
<path opacity="0.53" d="M48.3193 146.488C48.3193 146.488 45.3494 152.085 38.9505 155.476C43.5509 154.242 49.4716 150.042 48.3193 146.488Z" fill="#5A5A66"/>
<path opacity="0.53" d="M51.8168 140.958C51.8168 140.958 56.9699 133.744 56.8205 129.88C56.9449 136.698 54.9233 141.402 51.8168 140.958Z" fill="#5A5A66"/>
<path opacity="0.53" d="M45.7074 132.714C45.7074 132.714 49.3973 126.228 48.5315 121.086C49.8279 129.095 47.7662 132.261 45.7074 132.714Z" fill="#5A5A66"/>
<path opacity="0.53" d="M41.4855 126.799C41.4855 126.799 43.3286 121.02 40.848 116.069C40.6214 124.133 40.1681 126.697 41.4855 126.799Z" fill="#5A5A66"/>
<path opacity="0.53" d="M31.8527 118.378L29.6358 111.725C29.6358 111.725 28.3348 117.35 31.8527 118.378Z" fill="#5A5A66"/>
<path d="M49.8829 201.867C49.8829 201.867 -2.76275 204.325 0.252494 188.898C3.26832 173.471 28.4048 186.154 28.4048 186.154C28.4048 186.154 8.54107 174.993 6.18826 159.912C3.83546 144.831 43.0778 180.652 43.0778 180.652C43.0778 180.652 31.1441 168.749 30.1463 152.861C29.148 136.973 55.5815 158.864 49.8829 201.867Z" fill="#EDB62B"/>
<path opacity="0.39" d="M46.4268 193.904C46.4268 193.904 3.9711 151.255 14.8525 164.834C25.7344 178.412 46.4268 193.904 46.4268 193.904Z" fill="#A87D1D"/>
<path opacity="0.39" d="M7.58954 189.099L44.5854 194.478C44.5854 194.478 12.4741 194.254 7.58954 189.099Z" fill="#A87D1D"/>
<path opacity="0.39" d="M35.8 155.918L48.4374 183.72C48.4374 183.72 42.3773 160.042 35.8 155.918Z" fill="#A87D1D"/>
<path d="M55.7975 215.882H129.257C135.373 215.882 140.332 210.924 140.332 204.807V36.3713C140.332 30.2548 135.373 25.2958 129.257 25.2958H55.7975C49.681 25.2958 44.7227 30.2542 44.7227 36.3713V204.807C44.7227 210.924 49.681 215.882 55.7975 215.882Z" fill="#2F2F35"/>
<path d="M60.4337 215.045H133.893C140.01 215.045 144.968 210.118 144.968 204.04V36.6648C144.968 30.5867 140.01 25.6597 133.893 25.6597H60.4337C54.3172 25.6597 49.3582 30.5867 49.3582 36.6648V204.04C49.3588 210.118 54.3172 215.045 60.4337 215.045Z" stroke="#9191A3" stroke-width="0.9332" stroke-miterlimit="10"/>
<path d="M67.2338 215.882H140.693C146.81 215.882 151.768 210.924 151.768 204.807V36.3713C151.768 30.2548 146.81 25.2958 140.693 25.2958H67.2338C61.1173 25.2958 56.1589 30.2542 56.1589 36.3713V204.807C56.1583 210.924 61.1167 215.882 67.2338 215.882Z" fill="#5A5A66"/>
<path d="M64.0247 204.931H143.902C146.737 204.931 149.036 202.632 149.036 199.796V35.3C149.036 32.4644 146.737 30.1656 143.902 30.1656H64.0247C61.189 30.1656 58.8903 32.4644 58.8903 35.3V199.796C58.8903 202.632 61.189 204.931 64.0247 204.931Z" fill="#FFFFFD"/>
<path d="M100.311 210.253C100.311 212.271 101.946 213.906 103.964 213.906C105.981 213.906 107.617 212.271 107.617 210.253C107.617 208.236 105.981 206.6 103.964 206.6C101.946 206.599 100.311 208.235 100.311 210.253Z" fill="white"/>
<path d="M50.5926 52.9208C51.9552 52.9208 53.0604 54.0255 53.0604 55.3887V69.8867C53.0604 71.2494 51.9558 72.3546 50.5926 72.3546H48.1247V69.8867V55.3887V52.9208H50.5926Z" fill="#5A5A66"/>
<path d="M45.6574 69.8859C45.6574 71.2486 46.762 72.3538 48.1253 72.3538C49.4879 72.3538 50.5931 71.2491 50.5931 69.8859V55.3879C50.5931 54.0252 49.4879 52.92 48.1253 52.92C46.7626 52.92 45.6574 54.0247 45.6574 55.3879V69.8859Z" fill="#A9A7AA"/>
<path d="M50.5926 76.0556C51.9552 76.0556 53.0604 77.1603 53.0604 78.5235V93.0215C53.0604 94.3842 51.9558 95.4894 50.5926 95.4894H48.1247V93.0215V78.5235V76.0556H50.5926Z" fill="#5A5A66"/>
<path d="M45.6574 93.0215C45.6574 94.3842 46.762 95.4894 48.1253 95.4894C49.4879 95.4894 50.5931 94.3848 50.5931 93.0215V78.5235C50.5931 77.1603 49.4879 76.0556 48.1253 76.0556C46.7626 76.0556 45.6574 77.1603 45.6574 78.5235V93.0215Z" fill="#A9A7AA"/>
<path d="M68.8831 143.297H137.95C140.722 143.297 142.97 141.05 142.97 138.278V47.147C142.97 44.3747 140.722 42.1276 137.95 42.1276H68.8831C66.1108 42.1276 63.8637 44.3747 63.8637 47.147V138.278C63.8637 141.05 66.1113 143.297 68.8831 143.297Z" fill="#ECECEC"/>
<path d="M67.2032 199.651H139.63C141.474 199.651 142.97 198.156 142.97 196.312V149.722C142.97 147.878 141.474 146.383 139.63 146.383H67.2032C65.3588 146.383 63.8637 147.878 63.8637 149.722V196.312C63.8637 198.156 65.3588 199.651 67.2032 199.651Z" fill="#ECECEC"/>
<path d="M130.771 31.1579C130.771 33.6687 128.735 35.7049 126.224 35.7049H81.9682C79.4573 35.7049 77.4212 33.6693 77.4212 31.1579C77.4212 28.647 79.4567 26.6109 81.9682 26.6109H126.224C128.735 26.6109 130.771 28.6464 130.771 31.1579Z" fill="#5A5A66"/>
<path d="M71.4568 48.8367H80.5037" stroke="#5A5A66" stroke-width="1.6105" stroke-miterlimit="10"/>
<path d="M71.4567 52.0986H80.5036" stroke="#5A5A66" stroke-width="1.6105" stroke-miterlimit="10"/>
<path d="M71.4567 55.3591H80.5036" stroke="#5A5A66" stroke-width="1.6105" stroke-miterlimit="10"/>
<path d="M115.305 49.6634C115.305 47.7912 110.838 46.7423 110.838 49.6634C110.838 54.3069 115.305 56.3535 115.305 56.3535C115.305 56.3535 119.772 54.3069 119.772 49.6634C119.772 46.7429 115.305 47.7912 115.305 49.6634Z" fill="#5A5A66"/>
<path d="M133.974 54.3573H126.789L126.149 48.8365H134.614L133.974 54.3573Z" fill="#5A5A66"/>
<path d="M128.48 56.5658C129.09 56.5658 129.584 56.0714 129.584 55.4617C129.584 54.8519 129.09 54.3576 128.48 54.3576C127.871 54.3576 127.376 54.8519 127.376 55.4617C127.376 56.0714 127.871 56.5658 128.48 56.5658Z" fill="#5A5A66"/>
<path d="M132.284 56.5658C132.893 56.5658 133.388 56.0714 133.388 55.4617C133.388 54.8519 132.893 54.3576 132.284 54.3576C131.674 54.3576 131.18 54.8519 131.18 55.4617C131.18 56.0714 131.674 56.5658 132.284 56.5658Z" fill="#5A5A66"/>
<path d="M136.946 48.8365H133.388V50.0387H136.946V48.8365Z" fill="#5A5A66"/>
<path d="M138.183 150.831H68.0302V162.761H138.183V150.831Z" fill="#FFC900"/>
<path opacity="0.53" d="M84.526 166.376H68.0302V182.872H84.526V166.376Z" fill="#5A5A66"/>
<path opacity="0.28" d="M105.412 166.376H88.9157V182.872H105.412V166.376Z" fill="#5A5A66"/>
<path opacity="0.13" d="M126.167 166.376H109.672V182.872H126.167V166.376Z" fill="#5A5A66"/>
<path d="M131.197 170.02V178.77L138.183 174.395L131.197 170.02Z" fill="#5A5A66"/>
<path d="M68.0302 188.429H138.183" stroke="#5A5A66" stroke-width="0.9416" stroke-miterlimit="10"/>
<path d="M68.0302 193.129H138.183" stroke="#5A5A66" stroke-width="0.9416" stroke-miterlimit="10"/>
<path d="M77.8223 156.796H126.335" stroke="#2F2F35" stroke-width="1.8664" stroke-miterlimit="10" stroke-linecap="round"/>
<path d="M84.5261 30.9578C84.5261 32.0688 83.6254 32.9695 82.5144 32.9695C81.4034 32.9695 80.5027 32.0688 80.5027 30.9578C80.5027 29.8468 81.4034 28.9461 82.5144 28.9461C83.6254 28.9461 84.5261 29.8468 84.5261 30.9578Z" fill="white"/>
<path d="M138.76 64.6467H118.2V74.202H138.76V64.6467Z" fill="#FFC900"/>
<path d="M122.134 69.4249H134.472" stroke="#5A5A66" stroke-width="0.9416" stroke-miterlimit="10" stroke-linecap="round"/>
<path d="M126.906 69.4613C126.906 69.4613 128.816 72.9548 131.178 73.0472C132.959 79.0382 136.278 81.3143 138.759 82.4276C151.768 100.102 151.768 100.102 151.768 100.102V85.5527L135.166 69.4613H126.906Z" fill="#5A5A66"/>
<path opacity="0.33" d="M103.382 134.418C118.121 134.418 130.07 132.534 130.07 130.21C130.07 127.887 118.121 126.003 103.382 126.003C88.6426 126.003 76.694 127.887 76.694 130.21C76.694 132.534 88.6426 134.418 103.382 134.418Z" fill="#5A5A66"/>
<path d="M102.315 95.2488C95.2557 95.2488 88.5564 96.3767 82.5346 98.3988C81.3998 98.78 80.6815 99.8992 80.7832 101.092L82.9402 126.382C83.114 128.416 84.8154 129.979 86.8573 129.979H119.164C121.205 129.979 122.907 128.416 123.081 126.382L125.198 101.568C125.298 100.398 124.609 99.2978 123.507 98.8951C117.127 96.5626 109.931 95.2488 102.315 95.2488Z" fill="#FFC900"/>
<path d="M80.8536 101.915C81.0651 101.078 81.6822 100.375 82.5346 100.088C88.5564 98.0662 95.2557 96.9384 102.315 96.9384C109.932 96.9384 117.127 98.2522 123.506 100.585C124.329 100.886 124.921 101.575 125.127 102.392L125.197 101.567C125.297 100.398 124.609 99.297 123.506 98.8943C117.127 96.5618 109.932 95.248 102.315 95.248C95.2557 95.248 88.5564 96.3759 82.5346 98.398C81.3998 98.7792 80.6815 99.8984 80.7832 101.091L80.8536 101.915Z" fill="#2F2F35"/>
<path d="M83.3987 103.915C83.3987 105.325 82.2563 106.467 80.8472 106.467C79.438 106.467 78.295 105.325 78.295 103.915C78.295 102.506 79.4375 101.364 80.8472 101.364C82.2563 101.364 83.3987 102.506 83.3987 103.915Z" stroke="#2F2F35" stroke-width="1.8664" stroke-miterlimit="10"/>
<path d="M119.921 109.912H86.4286V110.869H119.921V109.912Z" fill="#2F2F35"/>
<path d="M87.8371 112.139C87.8371 112.841 87.2683 113.41 86.5669 113.41C85.8655 113.41 85.2966 112.841 85.2966 112.139C85.2966 111.438 85.8655 110.869 86.5669 110.869C87.2683 110.869 87.8371 111.437 87.8371 112.139Z" stroke="#2F2F35" stroke-width="1.8664" stroke-miterlimit="10"/>
<path d="M92.0985 104.277C92.0985 105.454 91.1444 106.408 89.9677 106.408C88.791 106.408 87.8369 105.454 87.8369 104.277V101.386C87.8369 100.209 88.791 99.2548 89.9677 99.2548C91.1444 99.2548 92.0985 100.209 92.0985 101.386V104.277Z" fill="#2F2F35"/>
<path d="M112.531 104.277C112.531 105.454 113.485 106.408 114.661 106.408C115.838 106.408 116.791 105.454 116.791 104.277V101.386C116.791 100.209 115.838 99.2548 114.661 99.2548C113.484 99.2548 112.531 100.209 112.531 101.386V104.277Z" fill="#2F2F35"/>
<path d="M89.9686 102.229C89.9686 102.229 89.4085 63.8969 102.991 63.8969C116.573 63.8969 114.662 102.229 114.662 102.229" stroke="#FFC900" stroke-width="3.7329" stroke-miterlimit="10" stroke-linecap="round"/>
<path d="M81.8359 113.435L82.94 126.382C83.1137 128.416 84.8151 129.979 86.8571 129.979H110.339C91.8068 128.496 81.8359 113.435 81.8359 113.435Z" fill="#EDB62B"/>
<path d="M202.225 167.898L203.814 216.696H185.589C185.589 216.696 185.664 213.094 190.32 210.997C189.407 167.963 189.407 167.963 189.407 167.963L202.225 167.898Z" fill="#FF7E6E"/>
<path d="M185.589 167.899L181.911 216.696H162.926C162.926 216.696 164.561 211.703 169.744 210.997C172.977 162.951 172.977 162.951 172.977 162.951L185.589 167.899Z" fill="#FF7E6E"/>
<path d="M202.226 167.898L189.407 167.962C189.407 167.962 189.407 167.967 189.638 178.857C193.452 179.771 197.769 180.475 202.647 180.863L202.226 167.898Z" fill="#0F1201"/>
<path d="M172.386 171.733C175.536 173.792 179.625 175.855 184.864 177.529L185.59 167.898L172.977 162.949C172.977 162.949 172.977 162.954 172.386 171.733Z" fill="#0F1201"/>
<path d="M180.809 100.056L162.926 162.443C162.926 162.443 183.537 182.649 214.25 167.09C199.747 100.056 199.747 100.056 199.747 100.056L185.589 100.814L180.809 100.056Z" fill="#5A5A66"/>
<path d="M205.199 44.519C205.199 44.519 202.761 39.5885 195.17 40.3968C187.578 41.2051 182.339 51.1817 182.729 60.8904C183.118 70.5992 189.267 78.9906 189.267 78.9906L207.986 74.2025C207.986 74.2025 211.883 65.4752 207.986 58.3895C204.089 51.3037 204.492 46.0542 204.492 46.0542L205.199 44.519Z" fill="#1C2F36"/>
<path d="M187.022 63.2298C187.022 63.2298 180.448 64.0381 175.382 69.8978C170.316 75.7574 161.148 85.5533 161.148 85.5533L146.841 70.4126C145.517 69.0104 143.499 68.1929 141.364 68.1929H128.859C128.039 68.1929 127.374 68.7501 127.374 69.437V69.4619C127.374 70.1488 128.039 70.706 128.859 70.706H133.646C133.646 70.706 134.129 76.6807 136.3 77.6907C138.472 78.7012 141.608 79.3073 141.608 79.3073L155.089 94.2399C157.886 97.7398 163.903 98.0292 167.161 94.821L182.619 79.5966L187.022 63.2298Z" fill="#FF7E6E"/>
<path d="M193.74 52.5825L192.415 64.0199L197.506 64.6475L197.924 57.5252L195.553 52.1315L193.74 52.5825Z" fill="#FF7E6E"/>
<path d="M194.452 52.4055L194.537 53.0667C194.537 53.0667 194.753 59.0629 197.636 62.4297L197.924 57.526L195.553 52.1324L194.452 52.4055Z" fill="#0F1201"/>
<path d="M194.321 50.7482C194.321 50.7482 194.321 58.9299 199.621 60.8823C200.829 61.1612 205.385 54.2812 205.943 49.7255C206.501 45.1698 205.199 44.519 205.199 44.519C205.199 44.519 197.389 42.3806 194.321 50.7482Z" fill="#FF7E6E"/>
<path d="M195.147 51.5688C195.197 52.6346 194.373 53.5387 193.306 53.5881C192.241 53.6375 191.337 52.8135 191.287 51.7472C191.238 50.6815 192.062 49.7774 193.128 49.728C194.194 49.6786 195.098 50.5026 195.147 51.5688Z" fill="#FF7E6E"/>
<path d="M200.486 53.2925C200.486 53.2925 200.072 52.257 198.539 51.9671" stroke="#700B00" stroke-width="0.9332" stroke-miterlimit="10" stroke-linecap="round"/>
<path d="M203.137 53.9955C203.137 53.9955 203.818 53.9055 204.492 54.3442" stroke="#700B00" stroke-width="0.9332" stroke-miterlimit="10" stroke-linecap="round"/>
<path d="M202.226 55.1555L201.936 56.3147L200.859 55.7354" stroke="#700B00" stroke-width="0.384" stroke-miterlimit="10"/>
<path d="M198.374 55.7356L201.542 57.3092C201.542 57.3092 199.533 58.3859 198.374 55.7356Z" fill="white"/>
<path d="M182.62 79.5975L183.667 75.7019L184.15 68.5865C184.15 68.5865 179.279 73.4706 179.24 82.9265L182.62 79.5975Z" fill="#0F1201"/>
<path d="M201.356 50.6832C201.356 50.6832 200.776 49.5652 198.913 49.9789" stroke="#700B00" stroke-width="0.384" stroke-miterlimit="10"/>
<path d="M204.09 51.3043C204.09 51.3043 205.08 51.3031 205.372 52.1317" stroke="#700B00" stroke-width="0.384" stroke-miterlimit="10"/>
<path d="M206.044 48.6284C206.278 45.071 205.199 44.519 205.199 44.519C205.199 44.519 197.389 42.3806 194.321 50.7482C198.224 46.361 204.055 47.9183 206.044 48.6284Z" fill="white"/>
<path d="M195.971 62.1838L203.522 64.5941C203.522 64.5941 199.893 87.0228 199.747 100.056C190.205 103.845 185.81 103.239 180.809 100.056C182.476 85.2046 182.476 85.2046 182.476 85.2046C182.476 85.2046 179.142 78.5366 182.173 72.4748C185.204 66.4129 187.022 63.2303 187.022 63.2303L195.971 62.1838Z" fill="#FFC801"/>
<path d="M203.523 64.5935C203.523 64.5935 206.572 65.0479 210.512 72.0192C213.177 76.7341 219.03 88.311 222.541 95.3119C224.076 98.3737 222.705 102.093 219.552 103.43L197.858 112.634V114.907C197.858 114.907 201.597 114.604 200.068 116.574C198.63 118.428 194.359 119.879 191.221 117.646C190.851 117.384 190.603 116.979 190.517 116.534C189.294 110.214 189.333 108.038 192.743 106.572C196.266 105.057 212.936 96.7216 212.936 96.7216L201.587 77.3239L197.858 78.385L203.523 64.5935Z" fill="#FF7E6E"/>
<path opacity="0.5" d="M146.843 70.4133C145.518 69.0112 143.5 68.1936 141.365 68.1936H134.654C135.216 69.3447 136.674 71.2036 140.381 71.9561C145.923 73.0805 150.315 79.86 154.381 84.278C158.447 88.696 161.863 90.1597 164.303 88.5332C162.884 87.1706 161.875 86.1886 161.188 85.5139C161.164 85.5383 161.149 85.5546 161.149 85.5546L146.843 70.4133Z" fill="white"/>
<path d="M195.972 62.1838L189.463 62.945C188.446 65.4355 185.559 73.2517 188.993 74.1419C192.268 74.9909 198.02 66.8249 200.187 63.5296L195.972 62.1838Z" fill="#FF7E6E"/>
<path d="M188.69 93.387C185.962 90.9621 182.476 85.2036 182.476 85.2036C182.476 85.2036 182.475 85.21 181.912 90.2323C184.816 93.978 191.215 95.6323 188.69 93.387Z" fill="#D19F00"/>
<path d="M199.747 100.056C199.758 99.1191 199.788 98.1284 199.832 97.1057C197.089 98.5543 189.941 101.399 181.062 97.8065C180.982 98.5183 180.898 99.2621 180.809 100.056C185.81 103.238 190.205 103.845 199.747 100.056Z" fill="#FF7E6E"/>
<path opacity="0.49" d="M219.302 100.236C219.302 101.305 219.594 102.303 220.096 103.164C222.857 101.65 223.984 98.1909 222.54 95.3116C222.501 95.2344 222.461 95.1536 222.422 95.0751C220.567 96.0519 219.302 97.9945 219.302 100.236Z" fill="#CD2E2B"/>
<path opacity="0.49" d="M166.393 95.469C165.17 94.0454 163.18 93.1151 160.926 93.1151C158.906 93.1151 157.098 93.8635 155.863 95.0437C158.638 97.5371 163.332 97.7382 166.393 95.469Z" fill="#CD2E2B"/>
<path d="M161.149 85.5536L164.075 88.3138" stroke="#7B3C38" stroke-width="0.4096" stroke-miterlimit="10" stroke-linecap="round"/>
<path d="M212.937 96.7212L217.484 94.405" stroke="#7B3C38" stroke-width="0.4096" stroke-miterlimit="10" stroke-linecap="round"/>
<path d="M203.523 64.5933L201.719 64.0174C199.728 67.2459 192.86 79.7538 200.518 87.7489C201.624 76.3254 203.523 64.5933 203.523 64.5933Z" fill="#FF7E6E"/>
<path d="M188.993 74.1417L189.785 71.9557" stroke="#7B3C38" stroke-width="0.4096" stroke-miterlimit="10" stroke-linecap="round"/>
<path d="M192.415 50.7484L193.306 53.5882" stroke="#7B3C38" stroke-width="0.4096" stroke-miterlimit="10" stroke-linecap="round"/>
<path opacity="0.5" d="M210.511 72.02C208.067 67.6967 205.967 65.8808 204.724 65.1243C203.795 66.4387 203.241 69.1744 206.477 74.589C211.797 83.49 222.751 98.4849 219.551 103.431C222.704 102.093 224.075 98.375 222.54 95.3127C219.03 88.3118 213.176 76.7343 210.511 72.02Z" fill="white"/>
<path d="M201.684 77.4877L199.833 74.7932C199.833 74.7932 200.006 77.8904 201.353 80.1433L201.684 77.4877Z" fill="#0F1201"/>
<path d="M187.512 212.88C185.637 214.746 185.589 216.695 185.589 216.695H203.814L203.652 211.74C195.018 215.329 189.573 213.787 187.512 212.88Z" fill="#FFC801"/>
<path d="M165.804 212.684C163.686 214.384 162.926 216.696 162.926 216.696H181.911L182.266 211.991C172.992 215.515 167.948 213.915 165.804 212.684Z" fill="#FFC801"/>
<path d="M177.017 206.923C177.017 206.923 177.017 209.989 180.958 209.259" stroke="#7B3C38" stroke-width="0.4096" stroke-miterlimit="10" stroke-linecap="round"/>
<path d="M197.998 206.923C197.998 206.923 197.998 209.989 201.939 209.259" stroke="#7B3C38" stroke-width="0.4096" stroke-miterlimit="10" stroke-linecap="round"/>
<path d="M213.941 120.353C208.528 120.685 203.444 121.866 198.922 123.7C198.069 124.046 197.571 124.938 197.705 125.848L200.552 145.139C200.781 146.691 202.159 147.809 203.725 147.713L228.498 146.19C230.064 146.095 231.295 144.816 231.332 143.248L231.786 124.12C231.808 123.219 231.228 122.407 230.363 122.15C225.362 120.662 219.781 119.994 213.941 120.353Z" fill="#FFC900"/>
<path d="M197.798 126.477C197.921 125.825 198.361 125.257 199.001 124.997C203.524 123.162 208.608 121.982 214.021 121.649C219.861 121.29 225.441 121.959 230.443 123.446C231.088 123.638 231.574 124.14 231.77 124.756L231.785 124.12C231.807 123.219 231.227 122.407 230.363 122.15C225.362 120.663 219.781 119.994 213.941 120.353C208.528 120.685 203.444 121.866 198.922 123.7C198.069 124.046 197.571 124.938 197.705 125.848L197.798 126.477Z" fill="#2F2F35"/>
<path d="M199.845 127.89C199.911 128.971 199.089 129.901 198.008 129.967C196.928 130.033 195.998 129.211 195.932 128.131C195.865 127.05 196.688 126.12 197.768 126.054C198.848 125.987 199.778 126.809 199.845 127.89Z" stroke="#2F2F35" stroke-width="1.4339" stroke-miterlimit="10"/>
<path d="M228.123 130.775L202.441 132.353L202.486 133.086L228.168 131.509L228.123 130.775Z" fill="#2F2F35"/>
<path d="M203.636 133.987C203.669 134.525 203.26 134.988 202.722 135.021C202.184 135.054 201.721 134.645 201.688 134.107C201.655 133.569 202.065 133.106 202.602 133.073C203.141 133.04 203.603 133.449 203.636 133.987Z" stroke="#2F2F35" stroke-width="1.4339" stroke-miterlimit="10"/>
<path d="M206.533 127.757C206.588 128.66 205.902 129.436 204.999 129.491C204.097 129.547 203.321 128.86 203.265 127.958L203.129 125.741C203.074 124.838 203.76 124.062 204.663 124.007C205.565 123.951 206.342 124.638 206.397 125.54L206.533 127.757Z" fill="#2F2F35"/>
<path d="M222.201 126.794C222.256 127.697 223.033 128.383 223.935 128.328C224.837 128.273 225.523 127.496 225.468 126.594L225.332 124.376C225.277 123.474 224.501 122.788 223.598 122.843C222.696 122.898 222.009 123.675 222.065 124.577L222.201 126.794Z" fill="#2F2F35"/>
<path d="M213.941 120.353C208.528 120.685 203.444 121.866 198.922 123.7C198.069 124.046 197.571 124.938 197.705 125.848L200.552 145.139C200.781 146.691 202.159 147.809 203.725 147.713L228.498 146.19C230.064 146.095 231.295 144.816 231.332 143.248L231.786 124.12C231.808 123.219 231.228 122.407 230.363 122.15C225.362 120.662 219.781 119.994 213.941 120.353Z" fill="#FFC900"/>
<path d="M197.798 126.477C197.921 125.825 198.361 125.257 199.001 124.997C203.524 123.162 208.608 121.982 214.021 121.649C219.861 121.29 225.441 121.959 230.443 123.446C231.088 123.638 231.574 124.14 231.77 124.756L231.785 124.12C231.807 123.219 231.227 122.407 230.363 122.15C225.362 120.663 219.781 119.994 213.941 120.353C208.528 120.685 203.444 121.866 198.922 123.7C198.069 124.046 197.571 124.938 197.705 125.848L197.798 126.477Z" fill="#2F2F35"/>
<path d="M199.845 127.89C199.911 128.971 199.089 129.901 198.008 129.967C196.928 130.033 195.998 129.211 195.932 128.131C195.865 127.05 196.688 126.12 197.768 126.054C198.848 125.987 199.778 126.809 199.845 127.89Z" stroke="#2F2F35" stroke-width="1.4339" stroke-miterlimit="10"/>
<path d="M228.123 130.775L202.441 132.353L202.486 133.086L228.168 131.509L228.123 130.775Z" fill="#2F2F35"/>
<path d="M203.636 133.987C203.669 134.525 203.26 134.988 202.722 135.021C202.184 135.054 201.721 134.645 201.688 134.107C201.655 133.569 202.065 133.106 202.602 133.073C203.141 133.04 203.603 133.449 203.636 133.987Z" stroke="#2F2F35" stroke-width="1.4339" stroke-miterlimit="10"/>
<path d="M206.533 127.757C206.588 128.66 205.902 129.436 204.999 129.491C204.097 129.547 203.321 128.86 203.265 127.958L203.129 125.741C203.074 124.838 203.76 124.062 204.663 124.007C205.565 123.951 206.342 124.638 206.397 125.54L206.533 127.757Z" fill="#2F2F35"/>
<path d="M222.201 126.794C222.256 127.697 223.033 128.383 223.935 128.328C224.837 128.273 225.523 127.496 225.468 126.594L225.332 124.376C225.277 123.474 224.501 122.788 223.598 122.843C222.696 122.898 222.009 123.675 222.065 124.577L222.201 126.794Z" fill="#2F2F35"/>
<path d="M204.803 126.288C204.803 126.288 202.567 96.9209 212.982 96.2806C223.396 95.6408 223.738 125.124 223.738 125.124" stroke="#FFC900" stroke-width="2.8678" stroke-miterlimit="10" stroke-linecap="round"/>
<path d="M201.686 102.296L211.464 97.4557L214.169 105.714L202.662 110.596L201.686 102.296Z" fill="#FF7E6E"/>
<path d="M232.252 115.117L235.495 108.91C235.707 108.503 236.252 108.418 236.579 108.74L238.582 110.717C238.881 111.011 238.845 111.504 238.507 111.752L233.023 115.779C232.578 116.105 231.997 115.607 232.252 115.117Z" fill="#A9A7AA"/>
<path d="M237.859 125.501L244.539 122.001C244.878 121.823 245.294 122.025 245.364 122.402L245.935 125.444C246 125.789 245.74 126.11 245.389 126.12L238.071 126.314C237.614 126.326 237.454 125.713 237.859 125.501Z" fill="#A9A7AA"/>
<path d="M237.812 135.268L245.889 136.636C246.223 136.692 246.407 137.056 246.255 137.359L244.791 140.277C244.653 140.554 244.299 140.641 244.047 140.46L237.585 135.81C237.327 135.623 237.497 135.215 237.812 135.268Z" fill="#A9A7AA"/>
<path d="M195.927 105.095C195.927 105.095 201.421 104.888 200.725 111.418C201.753 110.982 202.081 110.843 202.081 110.843C202.081 110.843 202.597 104.114 197.684 104.027C195.927 104.414 195.927 105.095 195.927 105.095Z" fill="#FFC900"/>
<path opacity="0.49" d="M197.48 117.381C196.503 117.59 195.422 112.882 194.864 110.859C194.501 109.543 191.956 108.951 190.221 108.697C189.481 110.248 189.752 112.58 190.517 116.534C190.603 116.98 190.852 117.384 191.221 117.647C193.631 119.362 196.705 118.901 198.655 117.756C198.32 117.495 197.904 117.29 197.48 117.381Z" fill="#CD2E2B"/>
<path opacity="0.5" d="M231.539 134.543C221.809 135.91 215.014 144.738 213.341 147.122L228.498 146.191C230.064 146.094 231.295 144.816 231.332 143.248L231.539 134.543Z" fill="white"/>
<path opacity="0.5" d="M169.744 210.996C164.561 211.701 162.926 216.695 162.926 216.695H168.844C170.206 214.954 172.455 213.264 175.917 211.74C177.369 201.844 173.881 186.44 171.904 178.884C171.428 185.97 170.739 196.204 169.744 210.996Z" fill="white"/>
<path opacity="0.5" d="M194.702 211.991C196.36 198.458 191.013 184.667 189.695 181.53C189.83 187.896 190.028 197.247 190.32 210.996C185.664 213.094 185.589 216.696 185.589 216.696H190.857C191.728 214.74 193 212.705 194.702 211.991Z" fill="white"/>
<path d="M167.489 165.93C169.747 167.395 172.798 169.065 176.543 170.413C177.809 164.067 179.534 154.844 180.959 145.14C183.55 127.481 184.272 111.716 180.809 120.258C178.016 127.149 170.349 155.303 167.489 165.93Z" fill="#2F2F35"/>
<path opacity="0.5" d="M195.17 40.3968C189.915 40.9564 185.789 45.9107 183.875 52.1277C189.224 41.5311 200.187 44.6898 200.187 44.6898L202.227 46.1803L204.699 45.6091L205.2 44.5196C205.2 44.5196 202.762 39.5885 195.17 40.3968Z" fill="white"/>
<path d="M206.05 48.5898C206.05 48.5898 200.894 49.7921 195.574 49.5823C197.4 48.0918 200.46 46.9686 206.05 48.5898Z" fill="#1C2F36"/>
<path opacity="0.5" d="M205.968 46.1809L197.924 47.5122C197.924 47.5122 195.794 52.8064 197.924 59.9264C198.419 60.3187 198.98 60.647 199.62 60.8829C200.829 61.1618 205.385 54.2818 205.943 49.7261C206.143 48.0874 206.101 46.9601 205.968 46.1809Z" fill="white"/>
</svg>
